<svg fill="none" xmlns="http://www.w3.org/2000/svg" viewBox="0 0 160 155"><path d="M119.821 25.011H40.33a3.188 3.188 0 00-3.188 3.188v46.413a3.187 3.187 0 003.188 3.189h79.492a3.188 3.188 0 003.189-3.189V28.199a3.189 3.189 0 00-3.19-3.188zM45.392 58.236h-.226a3.19 3.19 0 01-3.189-3.189v-7.283a3.188 3.188 0 013.189-3.188h.226v13.66zm61.231 15.172H50.341V29.402h56.282v44.006zm8.777-17.856a4.146 4.146 0 01-4.146-4.147 4.146 4.146 0 114.146 4.147zM91.654 21H68.497v2.758h23.157V21zm-8.046 64.861v-2.973h8.046V80.13H68.498v2.758h8.045v35.246a6.068 6.068 0 00-3.635 5.559V138h14.335v-14.307a6.062 6.062 0 00-3.636-5.557v-27.99h4.796l5.051 1.213v-6.711l-5.051 1.213h-4.795z" fill="#363636"/></svg>