<svg width="159" height="160" fill="none" xmlns="http://www.w3.org/2000/svg"><path d="M113.304 81.084v-11.26c0-1.166 1.034-2.112 2.312-2.112l8.244 1.41V61.82c0-2.099-1.691-3.058-4.161-3.8L96.74 52.155c1.6 1.24 1.87 1.818 1.87 3.917v40.285c0 2.099-.445 3.623-1.947 4.642l23.036-6.295c2.378-.743 4.161-3.757 4.161-5.856v-7.052l-8.244 1.397c-1.278.002-2.312-.945-2.312-2.11z" fill="#363636"/><path d="M124.194 70.694l-7.524-1.287c-.998 0-1.806.739-1.806 1.65v8.793c0 .911.808 1.65 1.806 1.65l7.524-1.275c1.142-.374 1.806-.739 1.806-1.65v-6.232c0-.91-.759-1.343-1.806-1.65zM96.51 55.995c0-4.527-4.19-3.974-4.19-3.974s-56.545 4.2-59.51 4.564c-2.964.362-2.809 3.909-2.809 3.909L30 92.822c0 3.335 2.574 3.344 2.574 3.344l16.315 1.25 8.055-10.397s1.098-1.629 2.48-1.629c1.384 0 2.409 1.659 2.409 1.659l8.972 12.048s18.709 1.701 22.3 1.701c3.59-.001 3.404-4.477 3.404-4.477V55.995zM42.854 85.14c-3.661 0-6.63-4.1-6.63-9.156 0-5.056 2.969-9.156 6.63-9.156 3.662 0 6.63 4.1 6.63 9.156 0 5.056-2.968 9.156-6.63 9.156zm35.803 1.27c-4.616 0-8.358-4.668-8.358-10.426 0-5.759 3.743-10.427 8.358-10.427 4.616 0 8.359 4.668 8.359 10.427 0 5.758-3.743 10.426-8.36 10.426z" fill="#363636"/></svg>