<svg fill="none" xmlns="http://www.w3.org/2000/svg" viewBox="0 0 180 202"><path d="M119.133 58.412c8.121 0 14.945-5.674 16.9-13.361l5.467.833c.107.017.215.025.32.025 1.051 0 1.971-.788 2.131-1.884.176-1.206-.639-2.33-1.816-2.51l-5.541-.844c.002-.047.004-.093.004-.142 0-.186-.006-.37-.014-.555 0 0-.451-6.674-1.074-9.458-.621-2.784-2.535-3.374-2.535-3.374-9.77-2.265-19.772-2.497-22.375-2.497-2.603 0-3.158 1.364-3.158 1.364l-3.15 5.116-.01-.003c-.076.124-.146.25-.219.376l-.027.044a18.129 18.129 0 00-2.367 8.987c-.001 9.877 7.819 17.883 17.464 17.883zM157.535 98.662v-.003l-26.742-2.22-9.246-21.616s-.461-2.84-6.008-8.68c-5.549-5.838-16.8-3.47-16.8-3.47s-23.885 4.576-31.744 6.469c-7.86 1.894-8.168 10.099-8.168 10.099l-.632 4.627-15.178-3.011a2.917 2.917 0 00-.568-.057c-1.407 0-2.671 1.024-2.948 2.487l-7.411 39.157c-.314 1.659.754 3.279 2.375 3.6l51.196 10.161c.115.022.23.024.346.034h.002a3.658 3.658 0 01-1.291-.036l-9.4-1.894-3.082 17.515-23.56 20.85a7.656 7.656 0 00-2.792 5.94c0 4.202 3.326 7.607 7.429 7.607a7.31 7.31 0 005.22-2.196s27.725-22.577 29.575-24.155c1.85-1.577 2.773-3.946 2.773-3.946s4.541-14.281 5.779-17.277c.848-2.052 4.932-1.105 4.932-1.105l22.885 8.837 7.615 29.758c.082.645.242 1.263.473 1.847h.002c1.098 2.793 3.77 4.765 6.889 4.765 4.104 0 7.43-3.406 7.43-7.608 0-.613-.072-1.207-.207-1.777-.842-5.084-4.604-27.693-5.561-32.587-1.078-5.523-4.621-7.1-4.621-7.1s-21.268-11.835-22.654-12.624c-1.387-.789-1.078-2.841-1.078-2.841l3.93-14.673 2.773 5.996s1.619 3.352 4.084 3.472l33.357.839c4.104 0 7.43-3.405 7.43-7.608-.001-3.982-2.993-7.249-6.804-7.576zM86.104 83.027l-1.79 6.02 9.899 1.966-20.214-4.01.548-2.557 11.557-1.419zm-2.25 46.561l-45.303-8.991 6.27-33.127 12.542 2.49-1.618 11.843-.64 4.511c-.005.027-.008.058-.012.084l-.018.13h.002c-.04.32-.063.644-.063.974 0 4.202 3.327 7.607 7.43 7.607s7.429-3.405 7.429-7.607c0-.325-.021-.645-.061-.959l2.9-13.54 17.414 3.455-6.271 33.13zM51.05 36.133h38.027c1.1 0 2-.918 2-2.038 0-1.12-.9-2.038-2-2.038H51.05c-1.1 0-2 .918-2 2.038 0 1.12.9 2.038 2 2.038zM64.08 42.294c-1.1 0-2 .917-2 2.037 0 1.12.9 2.038 2 2.038h22.959c1.1 0 2-.918 2-2.038 0-1.121-.9-2.038-2-2.038h-22.96z" fill="#fff"/><path d="M113.098 52.233c8.121 0 14.945-5.675 16.9-13.361l5.467.833c.107.016.215.025.32.025 1.051 0 1.971-.789 2.131-1.884.176-1.207-.639-2.33-1.816-2.51l-5.541-.845c.002-.047.004-.093.004-.141 0-.186-.006-.37-.014-.555 0 0-.451-6.674-1.074-9.458-.621-2.784-2.535-3.375-2.535-3.375-9.77-2.265-19.772-2.496-22.376-2.496-2.604 0-3.158 1.364-3.158 1.364l-3.15 5.115-.01-.003c-.076.124-.146.251-.219.377l-.027.044a18.13 18.13 0 00-2.367 8.987c0 9.877 7.82 17.883 17.465 17.883zM151.5 92.482v-.002l-26.742-2.22-9.246-21.617s-.461-2.84-6.008-8.679c-5.549-5.838-16.8-3.47-16.8-3.47S68.82 61.068 60.96 62.96c-7.86 1.895-8.168 10.1-8.168 10.1L49.71 95.623l-.64 4.511c-.005.027-.008.057-.012.084l-.018.13h.002c-.04.319-.063.644-.063.974 0 4.202 3.327 7.606 7.43 7.606s7.429-3.404 7.429-7.606c0-.326-.021-.645-.061-.96l4.734-22.097 11.557-1.42-1.79 6.022 9.899 1.965c1.62.32 2.688 1.94 2.375 3.6l-7.412 39.159c-.277 1.464-1.541 2.488-2.948 2.488-.072 0-.146-.017-.22-.022a3.63 3.63 0 01-1.291-.036l-9.4-1.893-3.082 17.514-23.56 20.85a7.659 7.659 0 00-2.792 5.94c0 4.202 3.326 7.608 7.429 7.608a7.315 7.315 0 005.22-2.196s27.725-22.578 29.575-24.156c1.85-1.577 2.773-3.945 2.773-3.945s4.54-14.282 5.779-17.278c.848-2.052 4.932-1.104 4.932-1.104l22.885 8.837 7.615 29.757c.082.645.242 1.264.473 1.847h.002c1.098 2.794 3.77 4.766 6.889 4.766 4.104 0 7.43-3.407 7.43-7.608 0-.613-.072-1.207-.207-1.777-.842-5.084-4.604-27.693-5.561-32.588-1.078-5.523-4.621-7.1-4.621-7.1s-21.267-11.831-22.653-12.622c-1.387-.788-1.078-2.84-1.078-2.84l3.93-14.674 2.773 5.996s1.619 3.353 4.084 3.472l33.357.84c4.104 0 7.43-3.406 7.43-7.609 0-3.983-2.992-7.25-6.803-7.577z" fill="#3A3A3A"/><path d="M79.971 130.058h.002c.073.006.147.022.22.022 1.407 0 2.671-1.024 2.948-2.489l7.412-39.157c.313-1.66-.755-3.28-2.375-3.602l-20.214-4.01-1.286 6.002 17.413 3.455-6.271 33.128-45.304-8.989 6.27-33.127 12.542 2.489.832-6.093-15.178-3.012a2.917 2.917 0 00-.568-.056c-1.407 0-2.671 1.024-2.948 2.487l-7.411 39.159c-.314 1.659.754 3.278 2.375 3.6l51.196 10.16c.114.023.229.024.345.033z" fill="#F0C42E"/><path d="M85.042 27.915c0 1.12-.9 2.037-2 2.037H45.015c-1.1 0-2-.917-2-2.037 0-1.12.9-2.038 2-2.038h38.027c1.1.001 2 .917 2 2.038zM83.004 38.152c0 1.12-.9 2.037-2 2.037h-22.96c-1.1 0-2-.917-2-2.037 0-1.121.9-2.038 2-2.038h22.959c1.1 0 2 .918 2 2.038z" fill="#F0C52E"/></svg>